<svg xmlns="http://www.w3.org/2000/svg" xmlns:xlink="http://www.w3.org/1999/xlink" viewBox="0 0 1600 820"><defs><style>.cls-1,.cls-10,.cls-13,.cls-14,.cls-19{fill:none;}.cls-2{font-size:50px;font-family:OpenSans-Bold, Open Sans;font-weight:700;}.cls-11,.cls-16,.cls-2{fill:#333;}.cls-12,.cls-16,.cls-17,.cls-18,.cls-3{font-family:OpenSans-Regular, Open Sans;}.cls-3{font-weight:400;}.cls-4,.cls-5{fill:#c1272d;}.cls-4,.cls-6{font-family:OpenSans-SemiBold, Open Sans;font-weight:600;}.cls-6,.cls-8{fill:#29abe2;}.cls-7{fill:#e6e6e6;stroke:gray;}.cls-10,.cls-13,.cls-14,.cls-19,.cls-7,.cls-8,.cls-9{stroke-miterlimit:10;}.cls-14,.cls-7,.cls-8,.cls-9{stroke-width:3px;}.cls-10,.cls-13,.cls-19,.cls-8,.cls-9{stroke:#333;}.cls-9{fill:#d4145a;}.cls-10{stroke-width:5.83px;}.cls-12,.cls-16,.cls-17,.cls-18{font-size:30px;}.cls-12,.cls-15{fill:#4d4d4d;}.cls-13{stroke-width:5px;}.cls-14{stroke:#4d4d4d;}.cls-17{fill:#f2f2f2;}.cls-19{stroke-width:2px;}.cls-20{opacity:0.2;}.cls-21{clip-path:url(#clip-path);}.cls-22{clip-path:url(#clip-path-3);}.cls-23{opacity:0.5;}.cls-24{clip-path:url(#clip-path-4);}.cls-25{clip-path:url(#clip-path-5);}.cls-26{clip-path:url(#clip-path-6);}</style><clipPath id="clip-path"><rect class="cls-1" x="1322.77" width="190" height="87.23"/></clipPath><clipPath id="clip-path-3"><rect class="cls-1" x="1322.77" width="190" height="87.23"/></clipPath><clipPath id="clip-path-4"><rect class="cls-1" x="1409.26" y="26" width="27.47" height="30.03"/></clipPath><clipPath id="clip-path-5"><rect class="cls-1" x="1464.32" y="26" width="27.46" height="30.03"/></clipPath><clipPath id="clip-path-6"><rect class="cls-1" x="1322.77" y="-0.03" width="190" height="87.23"/></clipPath></defs><g id="Layer_2" data-name="Layer 2"><text class="cls-2" transform="translate(800 338)">Circle Quadrant Area = 0.25π<tspan class="cls-3"><tspan x="0" y="50">(</tspan><tspan class="cls-4" x="14.79" y="50">red</tspan><tspan class="cls-5" x="96.31" y="50"> </tspan><tspan x="109.3" y="50">portion)</tspan></tspan></text><text class="cls-2" transform="translate(800 458)">Square Quarter Area = 1<tspan class="cls-3"><tspan x="0" y="50">(</tspan><tspan class="cls-4" x="14.79" y="50">red</tspan><tspan x="96.31" y="50">+</tspan><tspan class="cls-6" x="124.9" y="50">blue</tspan><tspan x="230.54" y="50" xml:space="preserve"> portion)</tspan></tspan></text><rect class="cls-7" x="180" y="160" width="500" height="500"/><circle class="cls-7" cx="430" cy="410" r="250"/><rect class="cls-8" x="430" y="160" width="250" height="250"/><path class="cls-9" d="M430,160V410H680C680,271.93,568.07,160,430,160Z"/><path class="cls-10" d="M80,410H759.07"/><polygon class="cls-11" points="754.81 424.54 780 410 754.81 395.46 754.81 424.54"/><path class="cls-10" d="M430,760V80.93"/><polygon class="cls-11" points="444.54 85.19 430 60 415.46 85.19 444.54 85.19"/><text class="cls-12" transform="translate(231.13 379.58)">radius=1.0</text><line class="cls-13" x1="680" y1="400" x2="680" y2="420"/><line class="cls-13" x1="440" y1="160" x2="420" y2="160"/><line class="cls-13" x1="440" y1="660" x2="420" y2="660"/><line class="cls-13" x1="180" y1="400" x2="180" y2="420"/><line class="cls-13" x1="430" y1="660" x2="430" y2="670"/><line class="cls-14" x1="195.85" y1="389.65" x2="413.48" y2="389.65"/><polygon class="cls-15" points="199.13 400.87 179.7 389.65 199.13 378.43 199.13 400.87"/><polygon class="cls-15" points="410.2 400.87 429.63 389.65 410.2 378.43 410.2 400.87"/><rect class="cls-15" x="150" y="430" width="60" height="30"/><text class="cls-16" transform="translate(154.03 456.25)">-1.0</text><text class="cls-17" transform="translate(154.03 456.25)">-1.0</text><rect class="cls-15" x="350" y="645" width="60" height="30"/><text class="cls-16" transform="translate(354.03 671.25)">-1.0</text><text class="cls-17" transform="translate(354.03 671.25)">-1.0</text><rect class="cls-15" x="350" y="430" width="60" height="30"/><text class="cls-16" transform="translate(358.86 456.25)">0.0</text><text class="cls-17" transform="translate(358.86 456.25)">0.0</text><rect class="cls-15" x="650" y="430" width="60" height="30"/><text class="cls-16" transform="translate(658.86 456.25)">1.0</text><text class="cls-17" transform="translate(658.86 456.25)">1.0</text><rect class="cls-15" x="350" y="145" width="60" height="30"/><text class="cls-16" transform="translate(358.86 171.25)">1.0</text><text class="cls-17" transform="translate(358.86 171.25)">1.0</text><text class="cls-18" transform="translate(571.76 112.37)">Square Quarter</text><line class="cls-19" x1="645" y1="160" x2="675.28" y2="129.72"/><polygon class="cls-11" points="677.77 134.28 680.36 124.64 670.72 127.22 677.77 134.28"/><text class="cls-18" transform="translate(516.27 472.8)">Circle<tspan x="-28.66" y="30">Quadrant</tspan></text><line class="cls-19" x1="555" y1="390" x2="555" y2="432.82"/><polygon class="cls-11" points="550.01 431.37 555 440 559.99 431.37 550.01 431.37"/></g><g id="Watermark"><g id="Cygig_Black" data-name="Cygig Black" class="cls-20"><g class="cls-21"><g class="cls-21"><g class="cls-22"><g class="cls-23"><g class="cls-24"><path d="M1422.76,26c-8,0-13.5,7.25-13.5,14.79,0,8,5.28,15.24,13.73,15.24,8.9,0,13.73-7.24,13.73-15.62,0-8.07-5.5-14.41-14-14.41"/></g></g><g class="cls-23"><g class="cls-25"><path d="M1477.82,26c-8,0-13.5,7.25-13.5,14.79,0,8,5.28,15.24,13.73,15.24,8.9,0,13.73-7.24,13.73-15.62,0-8.07-5.51-14.41-14-14.41"/></g></g><g class="cls-23"><g class="cls-26"><path d="M1322.77,87.2h190V0h-190Zm42.43-32.83a19.19,19.19,0,0,1-12.67,4.83c-10.34,0-17.88-8.07-17.88-18.26a17.75,17.75,0,0,1,17.95-18.11,18.3,18.3,0,0,1,12.14,4.3l-2.35,2.34a15.55,15.55,0,0,0-9.94-3.47c-8.22,0-14.41,7-14.41,14.94S1344.15,56,1352.38,56a16.4,16.4,0,0,0,10.55-4l2.27,2.27Zm14.56,23.92h-3.47l8.15-19.24-16.75-35.46h3.55l14.86,31.54,13.35-31.54h3.47Zm60.13-21.5c0,5.35-.15,10.18-3.47,14.79a16.81,16.81,0,0,1-13.88,6.71c-9.13,0-16.68-5.36-17.21-14.94h3.4c.38,7.24,6.49,11.77,13.51,11.77,4.37,0,8.59-1.51,11.16-5.2,2.72-4,3.1-8.53,3.1-13.21v-4.3h-.16a17.24,17.24,0,0,1-13.58,6.79c-10.11,0-16.9-8.52-16.9-18.26,0-10,7.17-18.11,17.36-18.11a15.5,15.5,0,0,1,13.12,6.79h.16l3.39-3.39Zm12.22,1.66h-3.4V23.59h3.4Zm-1.66-43.39a3.06,3.06,0,0,1-3.1-3.09,3.1,3.1,0,0,1,6.19,0,3.05,3.05,0,0,1-3.09,3.09M1495,56.79c0,5.35-.15,10.18-3.47,14.79a16.83,16.83,0,0,1-13.89,6.71c-9.13,0-16.67-5.36-17.2-14.94h3.4c.38,7.24,6.48,11.77,13.5,11.77,4.38,0,8.6-1.51,11.17-5.2,2.71-4,3.09-8.53,3.09-13.21v-4.3h-.15a17.26,17.26,0,0,1-13.58,6.79c-10.11,0-16.9-8.52-16.9-18.26,0-10,7.17-18.11,17.35-18.11a15.52,15.52,0,0,1,13.13,6.79h.15l3.4-3.39Z"/></g></g></g></g></g></g></g></svg>