<svg xmlns="http://www.w3.org/2000/svg" xmlns:xlink="http://www.w3.org/1999/xlink" viewBox="0 0 1260 710"><defs><style>.cls-1,.cls-4,.cls-8{fill:none;}.cls-2{fill:#29abe2;}.cls-2,.cls-3,.cls-4{stroke:#333;}.cls-2,.cls-3,.cls-4,.cls-8{stroke-miterlimit:10;}.cls-2,.cls-3{stroke-width:3px;}.cls-3{fill:#d4145a;}.cls-4{stroke-width:5px;}.cls-12,.cls-5,.cls-6,.cls-7,.cls-9{fill:#333;}.cls-14,.cls-6,.cls-9{font-size:30px;}.cls-10,.cls-14,.cls-6{font-family:OpenSans-Regular, Open Sans;}.cls-15,.cls-7{opacity:0.2;}.cls-8{stroke:#f2f2f2;stroke-linecap:round;stroke-width:3.07px;stroke-dasharray:0 12.3;}.cls-12,.cls-9{font-family:OpenSans-Bold, Open Sans;font-weight:700;}.cls-10{font-weight:400;}.cls-11{fill:#24bf0d;}.cls-12{font-size:70px;}.cls-13{fill:#4d4d4d;}.cls-14{fill:#f2f2f2;}.cls-16{clip-path:url(#clip-path);}.cls-17{clip-path:url(#clip-path-3);}.cls-18{opacity:0.5;}.cls-19{clip-path:url(#clip-path-4);}.cls-20{clip-path:url(#clip-path-5);}.cls-21{clip-path:url(#clip-path-6);}</style><clipPath id="clip-path"><rect class="cls-1" x="982.77" width="190" height="87.23"/></clipPath><clipPath id="clip-path-3"><rect class="cls-1" x="982.77" width="190" height="87.23"/></clipPath><clipPath id="clip-path-4"><rect class="cls-1" x="1069.26" y="26" width="27.47" height="30.03"/></clipPath><clipPath id="clip-path-5"><rect class="cls-1" x="1124.32" y="26" width="27.46" height="30.03"/></clipPath><clipPath id="clip-path-6"><rect class="cls-1" x="982.77" y="-0.03" width="190" height="87.23"/></clipPath></defs><g id="Layer_2" data-name="Layer 2"><rect class="cls-2" x="230" y="106.73" width="500" height="500"/><path class="cls-3" d="M230,106.73v500H730C730,330.58,506.14,106.73,230,106.73Z"/><polyline class="cls-4" points="780 606.73 230 606.73 230 56.73"/><polygon class="cls-5" points="776.35 594.26 797.94 606.73 776.35 619.19 776.35 594.26"/><polygon class="cls-5" points="242.47 60.37 230 38.78 217.53 60.37 242.47 60.37"/><line class="cls-4" x1="730" y1="596.73" x2="730" y2="616.73"/><text class="cls-6" transform="translate(708.86 652.98)">1.0</text><text class="cls-6" transform="translate(708.86 652.98)">1.0</text><line class="cls-4" x1="530" y1="596.73" x2="530" y2="616.73"/><text class="cls-6" transform="translate(508.86 652.98)">0.6</text><text class="cls-6" transform="translate(508.86 652.98)">0.6</text><line class="cls-4" x1="230" y1="596.73" x2="230" y2="616.73"/><text class="cls-6" transform="translate(208.86 652.98)">0.0</text><text class="cls-6" transform="translate(208.86 652.98)">0.0</text><line class="cls-4" x1="240" y1="106.73" x2="220" y2="106.73"/><text class="cls-6" transform="translate(158.86 117.98)">1.0</text><text class="cls-6" transform="translate(158.86 117.98)">1.0</text><line class="cls-4" x1="240" y1="256.73" x2="220" y2="256.73"/><text class="cls-6" transform="translate(158.86 267.97)">0.7</text><text class="cls-6" transform="translate(158.86 267.97)">0.7</text><polygon class="cls-7" points="230 606.73 530 606.73 530 256.73 230 606.73"/><polyline class="cls-8" points="530 606.73 530 256.73 230 256.73"/><text class="cls-9" transform="translate(361.22 596.43)">a<tspan class="cls-10" x="18.12" y="0">=0.6</tspan></text><text class="cls-9" transform="translate(361.22 596.43)">a<tspan class="cls-10" x="18.12" y="0">=0.6</tspan></text><text class="cls-9" transform="matrix(0.65, -0.76, 0.76, 0.65, 345.3, 450.02)">c<tspan class="cls-10" x="15.42" y="0">=0.9</tspan></text><text class="cls-9" transform="matrix(0.65, -0.76, 0.76, 0.65, 345.3, 450.02)">c<tspan class="cls-10" x="15.42" y="0">=0.9</tspan></text><text class="cls-9" transform="translate(519.7 480.94) rotate(-90)">b<tspan class="cls-10" x="18.98" y="0">=0.7</tspan></text><text class="cls-9" transform="translate(519.7 480.94) rotate(-90)">b<tspan class="cls-10" x="18.98" y="0">=0.7</tspan></text><circle class="cls-11" cx="530" cy="606.73" r="5"/><circle class="cls-11" cx="230" cy="606.73" r="5"/><circle class="cls-11" cx="530" cy="256.73" r="5"/><text class="cls-12" transform="translate(800 383.17)">c² = a² + b²</text><rect class="cls-13" x="100" y="589.23" width="110" height="35"/><text class="cls-6" transform="translate(105.14 616.29)">0.0, 0.0</text><text class="cls-14" transform="translate(105.14 616.29)">0.0, 0.0</text><rect class="cls-13" x="550" y="551.73" width="110" height="35"/><text class="cls-6" transform="translate(555.14 578.79)">0.6, 0.0</text><text class="cls-14" transform="translate(555.14 578.79)">0.6, 0.0</text><rect class="cls-13" x="550" y="239.23" width="110" height="35"/><text class="cls-6" transform="translate(555.14 266.29)">0.6, 0.7</text><text class="cls-14" transform="translate(555.14 266.29)">0.6, 0.7</text></g><g id="Watermark"><g id="Cygig_Black" data-name="Cygig Black" class="cls-15"><g class="cls-16"><g class="cls-16"><g class="cls-17"><g class="cls-18"><g class="cls-19"><path d="M1082.76,26c-8,0-13.5,7.25-13.5,14.79,0,8,5.28,15.24,13.73,15.24,8.9,0,13.73-7.24,13.73-15.62,0-8.07-5.5-14.41-14-14.41"/></g></g><g class="cls-18"><g class="cls-20"><path d="M1137.82,26c-8,0-13.5,7.25-13.5,14.79,0,8,5.28,15.24,13.73,15.24,8.9,0,13.73-7.24,13.73-15.62,0-8.07-5.51-14.41-14-14.41"/></g></g><g class="cls-18"><g class="cls-21"><path d="M982.77,87.2h190V0h-190Zm42.43-32.83a19.19,19.19,0,0,1-12.67,4.83c-10.34,0-17.88-8.07-17.88-18.26a17.75,17.75,0,0,1,18-18.11,18.3,18.3,0,0,1,12.14,4.3l-2.35,2.34a15.55,15.55,0,0,0-9.94-3.47C1004.23,26,998,33,998,40.94S1004.15,56,1012.38,56a16.4,16.4,0,0,0,10.55-4l2.27,2.27Zm14.56,23.92h-3.47l8.15-19.24-16.75-35.46h3.55l14.86,31.54,13.35-31.54h3.47Zm60.13-21.5c0,5.35-.15,10.18-3.47,14.79a16.81,16.81,0,0,1-13.88,6.71c-9.13,0-16.68-5.36-17.21-14.94h3.4c.38,7.24,6.49,11.77,13.51,11.77,4.37,0,8.59-1.51,11.16-5.2,2.72-4,3.1-8.53,3.1-13.21v-4.3h-.16a17.24,17.24,0,0,1-13.58,6.79c-10.11,0-16.9-8.52-16.9-18.26,0-10,7.17-18.11,17.36-18.11a15.5,15.5,0,0,1,13.12,6.79h.16l3.39-3.39Zm12.22,1.66h-3.4V23.59h3.4Zm-1.66-43.39a3.06,3.06,0,0,1-3.1-3.09,3.1,3.1,0,0,1,6.19,0,3.05,3.05,0,0,1-3.09,3.09M1155,56.79c0,5.35-.15,10.18-3.47,14.79a16.83,16.83,0,0,1-13.89,6.71c-9.13,0-16.67-5.36-17.2-14.94h3.4c.38,7.24,6.48,11.77,13.5,11.77,4.38,0,8.6-1.51,11.17-5.2,2.71-4,3.09-8.53,3.09-13.21v-4.3h-.15a17.26,17.26,0,0,1-13.58,6.79c-10.11,0-16.9-8.52-16.9-18.26,0-10,7.17-18.11,17.35-18.11a15.52,15.52,0,0,1,13.13,6.79h.15l3.4-3.39Z"/></g></g></g></g></g></g></g></svg>