<svg xmlns="http://www.w3.org/2000/svg" xmlns:xlink="http://www.w3.org/1999/xlink" viewBox="0 0 2237 920"><defs><style>.cls-1,.cls-10,.cls-11,.cls-4,.cls-9{fill:none;}.cls-2{fill:#29abe2;}.cls-2,.cls-3,.cls-4{stroke:#333;}.cls-10,.cls-11,.cls-2,.cls-3,.cls-4,.cls-9{stroke-miterlimit:10;}.cls-2,.cls-3,.cls-9{stroke-width:3px;}.cls-3{fill:#d4145a;}.cls-4{stroke-width:5px;}.cls-5,.cls-6,.cls-7{fill:#333;}.cls-12,.cls-6{font-size:30px;font-family:OpenSans-Regular, Open Sans;}.cls-14,.cls-7{opacity:0.2;}.cls-8{fill:#fff;}.cls-10,.cls-11,.cls-9{stroke:#f2f2f2;stroke-linecap:round;}.cls-9{stroke-dasharray:0 12;}.cls-10{stroke-width:3.29px;stroke-dasharray:0 13.15;}.cls-11{stroke-width:4.02px;stroke-dasharray:0 16.1;}.cls-13{font-family:OpenSans-Italic, Open Sans;font-style:italic;}.cls-15{clip-path:url(#clip-path);}.cls-16{clip-path:url(#clip-path-3);}.cls-17{opacity:0.5;}.cls-18{clip-path:url(#clip-path-4);}.cls-19{clip-path:url(#clip-path-5);}.cls-20{clip-path:url(#clip-path-6);}</style><clipPath id="clip-path"><rect class="cls-1" x="1959.77" width="190" height="87.23"/></clipPath><clipPath id="clip-path-3"><rect class="cls-1" x="1959.77" width="190" height="87.23"/></clipPath><clipPath id="clip-path-4"><rect class="cls-1" x="2046.26" y="26" width="27.47" height="30.03"/></clipPath><clipPath id="clip-path-5"><rect class="cls-1" x="2101.32" y="26" width="27.46" height="30.03"/></clipPath><clipPath id="clip-path-6"><rect class="cls-1" x="1959.77" y="-0.03" width="190" height="87.23"/></clipPath></defs><g id="Layer_2" data-name="Layer 2"><rect class="cls-2" x="910.16" y="150" width="500" height="500"/><path class="cls-3" d="M910.16,150V650h500C1410.16,373.86,1186.3,150,910.16,150Z"/><polyline class="cls-4" points="1460.16 650 910.16 650 910.16 100"/><polygon class="cls-5" points="1456.52 637.53 1478.1 650 1456.52 662.47 1456.52 637.53"/><polygon class="cls-5" points="922.63 103.65 910.16 82.06 897.7 103.65 922.63 103.65"/><line class="cls-4" x1="1410.16" y1="640" x2="1410.16" y2="660"/><text class="cls-6" transform="translate(1389.02 696.25)">1.0</text><text class="cls-6" transform="translate(1389.02 696.25)">1.0</text><line class="cls-4" x1="1160.16" y1="640" x2="1160.16" y2="660"/><text class="cls-6" transform="translate(1139.02 696.25)">0.5</text><text class="cls-6" transform="translate(1139.02 696.25)">0.5</text><text class="cls-6" transform="matrix(0.53, -0.85, 0.85, 0.53, 1005.35, 471.06)">c=0.9</text><text class="cls-6" transform="matrix(0.53, -0.85, 0.85, 0.53, 1005.35, 471.06)">c=0.9</text><line class="cls-4" x1="910.16" y1="640" x2="910.16" y2="660"/><text class="cls-6" transform="translate(889.02 696.25)">0.0</text><text class="cls-6" transform="translate(889.02 696.25)">0.0</text><line class="cls-4" x1="920.16" y1="150" x2="900.16" y2="150"/><text class="cls-6" transform="translate(839.02 161.25)">1.0</text><text class="cls-6" transform="translate(839.02 161.25)">1.0</text><line class="cls-4" x1="920.16" y1="250" x2="900.16" y2="250"/><text class="cls-6" transform="translate(839.02 261.25)">0.8</text><text class="cls-6" transform="translate(839.02 261.25)">0.8</text><polygon class="cls-7" points="910.16 650 1160.16 650 1160.16 250 910.16 650"/><circle class="cls-8" cx="1160.16" cy="250" r="5"/><polyline class="cls-9" points="1160.16 650 1160.16 250 910.16 250"/><text class="cls-6" transform="translate(1007.1 639.7)">a=0.5</text><text class="cls-6" transform="translate(1007.1 639.7)">a=0.5</text><text class="cls-6" transform="translate(1149.86 508.91) rotate(-90)">b=0.8</text><text class="cls-6" transform="translate(1149.86 508.91) rotate(-90)">b=0.8</text><rect class="cls-2" x="180.16" y="150" width="500" height="500"/><path class="cls-3" d="M180.16,150V650h500C680.16,373.86,456.3,150,180.16,150Z"/><polyline class="cls-4" points="730.16 650 180.16 650 180.16 100"/><polygon class="cls-5" points="726.51 637.53 748.1 650 726.51 662.47 726.51 637.53"/><polygon class="cls-5" points="192.63 103.65 180.16 82.06 167.7 103.65 192.63 103.65"/><line class="cls-4" x1="680.16" y1="640" x2="680.16" y2="660"/><text class="cls-6" transform="translate(659.02 696.25)">1.0</text><text class="cls-6" transform="translate(659.02 696.25)">1.0</text><line class="cls-4" x1="580.16" y1="640" x2="580.16" y2="660"/><text class="cls-6" transform="translate(559.02 696.25)">0.8</text><text class="cls-6" transform="translate(559.02 696.25)">0.8</text><text class="cls-6" transform="matrix(0.8, -0.6, 0.6, 0.8, 340.83, 511.57)">c=1.0</text><text class="cls-6" transform="matrix(0.8, -0.6, 0.6, 0.8, 340.83, 511.57)">c=1.0</text><line class="cls-4" x1="180.16" y1="640" x2="180.16" y2="660"/><text class="cls-6" transform="translate(159.02 696.25)">0.0</text><text class="cls-6" transform="translate(159.02 696.25)">0.0</text><line class="cls-4" x1="190.16" y1="150" x2="170.16" y2="150"/><text class="cls-6" transform="translate(109.02 161.25)">1.0</text><text class="cls-6" transform="translate(109.02 161.25)">1.0</text><line class="cls-4" x1="190.16" y1="350" x2="170.16" y2="350"/><text class="cls-6" transform="translate(109.02 361.25)">0.6</text><text class="cls-6" transform="translate(109.02 361.25)">0.6</text><polygon class="cls-7" points="180.16 650 580.16 650 580.16 350 180.16 650"/><circle class="cls-8" cx="580.16" cy="350" r="5"/><polyline class="cls-10" points="580.16 650 580.16 350 180.16 350"/><text class="cls-6" transform="translate(372.1 639.7)">a=0.8</text><text class="cls-6" transform="translate(372.1 639.7)">a=0.8</text><text class="cls-6" transform="translate(569.86 548.91) rotate(-90)">b=0.6</text><text class="cls-6" transform="translate(569.86 548.91) rotate(-90)">b=0.6</text><rect class="cls-2" x="1586.84" y="150" width="500" height="500"/><path class="cls-3" d="M1586.84,150V650h500C2086.84,373.86,1863,150,1586.84,150Z"/><polyline class="cls-4" points="2136.84 650 1586.84 650 1586.84 100"/><polygon class="cls-5" points="2133.19 637.53 2154.78 650 2133.19 662.47 2133.19 637.53"/><polygon class="cls-5" points="1599.3 103.65 1586.84 82.06 1574.37 103.65 1599.3 103.65"/><line class="cls-4" x1="2086.84" y1="640" x2="2086.84" y2="660"/><text class="cls-6" transform="translate(2065.69 696.25)">1.0</text><text class="cls-6" transform="translate(2065.69 696.25)">1.0</text><line class="cls-4" x1="2036.84" y1="640" x2="2036.84" y2="660"/><text class="cls-6" transform="translate(2015.69 696.25)">0.9</text><text class="cls-6" transform="translate(2015.69 696.25)">0.9</text><text class="cls-6" transform="translate(1774.17 464.18) rotate(-41.6)">c=1.2</text><text class="cls-6" transform="translate(1774.17 464.18) rotate(-41.6)">c=1.2</text><line class="cls-4" x1="1586.84" y1="640" x2="1586.84" y2="660"/><text class="cls-6" transform="translate(1565.69 696.25)">0.0</text><text class="cls-6" transform="translate(1565.69 696.25)">0.0</text><line class="cls-4" x1="1596.84" y1="150" x2="1576.84" y2="150"/><text class="cls-6" transform="translate(1515.69 161.25)">1.0</text><text class="cls-6" transform="translate(1515.69 161.25)">1.0</text><line class="cls-4" x1="1596.84" y1="250" x2="1576.84" y2="250"/><text class="cls-6" transform="translate(1515.69 261.25)">0.8</text><text class="cls-6" transform="translate(1515.69 261.25)">0.8</text><polygon class="cls-7" points="1586.84 650 2036.84 650 2036.84 250 1586.84 650"/><circle class="cls-8" cx="2036.84" cy="250" r="5"/><polyline class="cls-11" points="2036.84 650 2036.84 250 1586.84 250"/><text class="cls-6" transform="translate(1803.77 639.7)">a=0.9</text><text class="cls-6" transform="translate(1803.77 639.7)">a=0.9</text><text class="cls-6" transform="translate(2026.54 518.91) rotate(-90)">b=0.8</text><text class="cls-6" transform="translate(2026.54 518.91) rotate(-90)">b=0.8</text><text class="cls-12" transform="translate(195.57 742.8)">As the radius is 1, the maximum <tspan class="cls-13" x="455.67" y="0">c</tspan><tspan x="469.17" y="0"> </tspan><tspan x="2.29" y="36">can be is 1 without exceeding the </tspan><tspan x="6.91" y="72">perimeter of the circle quadrant.</tspan></text><text class="cls-12" transform="translate(927.31 742.8)">Any set of point with <tspan class="cls-13" x="294.52" y="0">c</tspan><tspan x="308.03" y="0" xml:space="preserve"> less than 1 </tspan><tspan x="1.53" y="36">will be within the circle quadrant.</tspan></text><path d="M1628.9,742.8l-2.67-6.81h-8.58L1615,742.8h-2.52l8.47-21.5h2.09l8.42,21.5Zm-3.45-9-2.49-6.64q-.48-1.26-1-3.09a28.75,28.75,0,0,1-.93,3.09l-2.52,6.64Z"/><path d="M1645,742.8V732.41a4.24,4.24,0,0,0-.89-2.93,3.67,3.67,0,0,0-2.8-1,4.6,4.6,0,0,0-3.69,1.36c-.79.91-1.18,2.41-1.18,4.5v8.42h-2.43v-16h2l.4,2.19h.11a5,5,0,0,1,2.1-1.84,6.87,6.87,0,0,1,3-.65,6.13,6.13,0,0,1,4.37,1.4,6,6,0,0,1,1.46,4.48V742.8Z"/><path d="M1649.92,726.75h2.6l3.52,9.15a35.92,35.92,0,0,1,1.44,4.53h.11c.13-.5.39-1.35.8-2.56s1.73-4.91,4-11.12H1665l-6.9,18.28a9.26,9.26,0,0,1-2.4,3.84,5.07,5.07,0,0,1-3.36,1.14,10.17,10.17,0,0,1-2.2-.25v-2a8.31,8.31,0,0,0,1.8.18q2.5,0,3.58-2.82l.89-2.28Z"/><path d="M1680.21,743.09a5.45,5.45,0,0,1-6-6,13.19,13.19,0,0,1,1.09-5.4,9.16,9.16,0,0,1,3-3.86,7.13,7.13,0,0,1,4.3-1.39,10.71,10.71,0,0,1,3.93.75l-.69,2.06a8.4,8.4,0,0,0-3.21-.74,4.56,4.56,0,0,0-3,1.12,7.34,7.34,0,0,0-2.13,3.12,12,12,0,0,0-.77,4.34,4.12,4.12,0,0,0,1,2.92,3.5,3.5,0,0,0,2.68,1,6.54,6.54,0,0,0,2-.3,17.68,17.68,0,0,0,1.84-.68v2.09A8.73,8.73,0,0,1,1680.21,743.09Z"/><path d="M1717.14,742.8V732.36a4.38,4.38,0,0,0-.82-2.88,3.18,3.18,0,0,0-2.55-1,4.14,4.14,0,0,0-3.36,1.3,6.22,6.22,0,0,0-1.08,4v9h-2.43V732.36a4.32,4.32,0,0,0-.82-2.88,3.19,3.19,0,0,0-2.56-1,4,4,0,0,0-3.35,1.37,7.39,7.39,0,0,0-1.06,4.49v8.42h-2.44v-16h2l.4,2.19h.11a4.79,4.79,0,0,1,1.95-1.83,5.9,5.9,0,0,1,2.8-.66q3.77,0,4.92,2.73h.12a5.14,5.14,0,0,1,2.08-2,6.55,6.55,0,0,1,3.11-.73,5.47,5.47,0,0,1,4.08,1.4,6.28,6.28,0,0,1,1.35,4.48V742.8Z"/><path d="M1738.44,734.76a8.84,8.84,0,0,1-2,6.13,7,7,0,0,1-5.46,2.2,7.21,7.21,0,0,1-3.83-1,6.7,6.7,0,0,1-2.58-2.9,10.17,10.17,0,0,1-.9-4.42,8.84,8.84,0,0,1,2-6.12,6.94,6.94,0,0,1,5.45-2.19,6.8,6.8,0,0,1,5.35,2.24A8.81,8.81,0,0,1,1738.44,734.76Zm-12.23,0a7.64,7.64,0,0,0,1.23,4.69,4.87,4.87,0,0,0,7.24,0,7.6,7.6,0,0,0,1.24-4.69,7.49,7.49,0,0,0-1.24-4.65,4.35,4.35,0,0,0-3.66-1.59,4.28,4.28,0,0,0-3.6,1.56A7.58,7.58,0,0,0,1726.21,734.76Z"/><path d="M1750,726.45a9.22,9.22,0,0,1,1.92.18l-.33,2.25a8.78,8.78,0,0,0-1.76-.22,4.26,4.26,0,0,0-3.33,1.59,5.72,5.72,0,0,0-1.39,3.94v8.61h-2.43v-16h2l.27,3h.12a7.11,7.11,0,0,1,2.16-2.42A4.88,4.88,0,0,1,1750,726.45Z"/><path d="M1761.73,743.09a7.35,7.35,0,0,1-5.62-2.17,8.39,8.39,0,0,1-2.06-6,9.32,9.32,0,0,1,1.91-6.16,6.35,6.35,0,0,1,5.14-2.29,6,6,0,0,1,4.77,2,7.56,7.56,0,0,1,1.76,5.23v1.54h-11.06a6.36,6.36,0,0,0,1.43,4.29,4.94,4.94,0,0,0,3.82,1.47,12.81,12.81,0,0,0,5.12-1.09v2.17a12.82,12.82,0,0,1-2.44.8A13.72,13.72,0,0,1,1761.73,743.09Zm-.66-14.6a4,4,0,0,0-3.09,1.26,5.86,5.86,0,0,0-1.35,3.48H1765a5.37,5.37,0,0,0-1-3.52A3.63,3.63,0,0,0,1761.07,728.49Z"/><path d="M1784.76,741.09a8.3,8.3,0,0,0,1.24-.1,6.91,6.91,0,0,0,1-.2v1.86a4.15,4.15,0,0,1-1.16.32,9.11,9.11,0,0,1-1.39.12q-4.65,0-4.65-4.9v-9.56h-2.3v-1.17l2.3-1,1-3.43h1.41v3.73h4.66v1.88h-4.66v9.45a3.25,3.25,0,0,0,.69,2.23A2.37,2.37,0,0,0,1784.76,741.09Z"/><path d="M1801.15,742.8V732.41a4.19,4.19,0,0,0-.9-2.93,3.63,3.63,0,0,0-2.79-1,4.6,4.6,0,0,0-3.7,1.37,7,7,0,0,0-1.17,4.52v8.39h-2.43V720h2.43v6.9a16.57,16.57,0,0,1-.11,2.06h.14a5,5,0,0,1,2-1.82,6.62,6.62,0,0,1,3-.67,6.22,6.22,0,0,1,4.42,1.4,5.89,5.89,0,0,1,1.47,4.45V742.8Z"/><path d="M1818.45,742.8l-.49-2.29h-.11a6.75,6.75,0,0,1-2.4,2,7.43,7.43,0,0,1-3,.53,5.35,5.35,0,0,1-3.74-1.23,4.46,4.46,0,0,1-1.36-3.5q0-4.86,7.78-5.1l2.73-.08v-1a4.08,4.08,0,0,0-.82-2.79,3.34,3.34,0,0,0-2.6-.9,10.59,10.59,0,0,0-4.54,1.23l-.75-1.86a11.42,11.42,0,0,1,2.6-1,11.07,11.07,0,0,1,2.84-.37,6.1,6.1,0,0,1,4.25,1.28,5.29,5.29,0,0,1,1.39,4.08v11Zm-5.5-1.71a4.93,4.93,0,0,0,3.57-1.25,4.59,4.59,0,0,0,1.3-3.49V734.9l-2.43.11a8.93,8.93,0,0,0-4.19.9,2.72,2.72,0,0,0-1.28,2.48,2.52,2.52,0,0,0,.8,2A3.31,3.31,0,0,0,1813,741.09Z"/><path d="M1836.24,742.8V732.41a4.19,4.19,0,0,0-.89-2.93,3.65,3.65,0,0,0-2.8-1,4.6,4.6,0,0,0-3.69,1.36q-1.17,1.36-1.17,4.5v8.42h-2.43v-16h2l.39,2.19h.12a5,5,0,0,1,2.09-1.84,6.88,6.88,0,0,1,3-.65,6.11,6.11,0,0,1,4.36,1.4,6,6,0,0,1,1.47,4.48V742.8Z"/><path d="M1859.36,742.8H1857V727.54c0-1.27,0-2.47.11-3.61-.2.21-.43.42-.68.65s-1.42,1.17-3.49,2.85l-1.29-1.67,5.67-4.38h2Z"/><path d="M1889.52,742.8l-2.94-9.42c-.19-.58-.54-1.88-1-3.92h-.12c-.39,1.7-.73,3-1,3.95l-3,9.39h-2.81l-4.38-16h2.55q1.54,6,2.36,9.21a34.07,34.07,0,0,1,.93,4.26h.12c.11-.55.28-1.28.52-2.16s.45-1.58.62-2.1l3-9.21h2.63l2.88,9.21a32.91,32.91,0,0,1,1.11,4.23h.12a15.6,15.6,0,0,1,.31-1.62q.26-1.11,3.06-11.82h2.52l-4.44,16Z"/><path d="M1899.54,722.39a1.63,1.63,0,0,1,.41-1.22,1.44,1.44,0,0,1,1-.39,1.46,1.46,0,0,1,1,.4,1.59,1.59,0,0,1,.42,1.21,1.64,1.64,0,0,1-.42,1.23,1.42,1.42,0,0,1-1,.4,1.4,1.4,0,0,1-1-.4A1.67,1.67,0,0,1,1899.54,722.39Zm2.64,20.41h-2.43v-16h2.43Z"/><path d="M1909.77,742.8h-2.44V720h2.44Z"/><path d="M1917.35,742.8h-2.43V720h2.43Z"/><path d="M1950.77,742.8V732.36a4.38,4.38,0,0,0-.82-2.88,3.18,3.18,0,0,0-2.55-1,4.12,4.12,0,0,0-3.36,1.3,6.22,6.22,0,0,0-1.08,4v9h-2.43V732.36a4.38,4.38,0,0,0-.82-2.88,3.2,3.2,0,0,0-2.57-1,3.93,3.93,0,0,0-3.34,1.37,7.39,7.39,0,0,0-1.07,4.49v8.42h-2.43v-16h2l.4,2.19h.11a4.82,4.82,0,0,1,1.94-1.83,5.94,5.94,0,0,1,2.81-.66q3.76,0,4.92,2.73h.12a5.14,5.14,0,0,1,2.08-2,6.54,6.54,0,0,1,3.1-.73,5.44,5.44,0,0,1,4.08,1.4,6.24,6.24,0,0,1,1.36,4.48V742.8Z"/><path d="M1965,743.09a7.37,7.37,0,0,1-5.62-2.17,8.39,8.39,0,0,1-2.06-6,9.27,9.27,0,0,1,1.92-6.16,6.32,6.32,0,0,1,5.13-2.29,6.06,6.06,0,0,1,4.78,2,7.6,7.6,0,0,1,1.75,5.23v1.54h-11.06a6.36,6.36,0,0,0,1.43,4.29,4.94,4.94,0,0,0,3.82,1.47,12.74,12.74,0,0,0,5.12-1.09v2.17a12.74,12.74,0,0,1-2.43.8A13.9,13.9,0,0,1,1965,743.09Zm-.66-14.6a4,4,0,0,0-3.08,1.26,5.8,5.8,0,0,0-1.36,3.48h8.4a5.37,5.37,0,0,0-1-3.52A3.62,3.62,0,0,0,1964.33,728.49Z"/><path d="M1984.91,742.8l-.48-2.29h-.12a6.81,6.81,0,0,1-2.39,2,7.43,7.43,0,0,1-3,.53,5.38,5.38,0,0,1-3.75-1.23,4.48,4.48,0,0,1-1.35-3.5q0-4.86,7.78-5.1l2.72-.08v-1a4.08,4.08,0,0,0-.81-2.79,3.36,3.36,0,0,0-2.6-.9,10.59,10.59,0,0,0-4.54,1.23l-.75-1.86a11.25,11.25,0,0,1,2.6-1,11,11,0,0,1,2.83-.37,6.11,6.11,0,0,1,4.26,1.28,5.32,5.32,0,0,1,1.38,4.08v11Zm-5.49-1.71a4.92,4.92,0,0,0,3.56-1.25,4.59,4.59,0,0,0,1.3-3.49V734.9l-2.43.11a8.88,8.88,0,0,0-4.18.9,2.7,2.7,0,0,0-1.28,2.48,2.51,2.51,0,0,0,.79,2A3.33,3.33,0,0,0,1979.42,741.09Z"/><path d="M2002.71,742.8V732.41a4.24,4.24,0,0,0-.89-2.93,3.67,3.67,0,0,0-2.8-1,4.6,4.6,0,0,0-3.69,1.36,6.89,6.89,0,0,0-1.18,4.5v8.42h-2.43v-16h2l.4,2.19h.11a5,5,0,0,1,2.1-1.84,6.87,6.87,0,0,1,3-.65,6.13,6.13,0,0,1,4.37,1.4,6,6,0,0,1,1.46,4.48V742.8Z"/><path d="M2023.11,741.09a8.44,8.44,0,0,0,1.25-.1,6.91,6.91,0,0,0,1-.2v1.86a4.15,4.15,0,0,1-1.16.32,9.11,9.11,0,0,1-1.39.12c-3.1,0-4.66-1.63-4.66-4.9v-9.56h-2.29v-1.17l2.29-1,1-3.43h1.41v3.73h4.65v1.88h-4.65v9.45a3.25,3.25,0,0,0,.69,2.23A2.36,2.36,0,0,0,2023.11,741.09Z"/><path d="M2039.51,742.8V732.41a4.19,4.19,0,0,0-.9-2.93,3.65,3.65,0,0,0-2.8-1,4.59,4.59,0,0,0-3.69,1.37,7,7,0,0,0-1.17,4.52v8.39h-2.43V720H2031v6.9a14.63,14.63,0,0,1-.12,2.06h.15a5,5,0,0,1,2-1.82,6.62,6.62,0,0,1,3-.67,6.23,6.23,0,0,1,4.42,1.4,5.89,5.89,0,0,1,1.47,4.45V742.8Z"/><path d="M2053.72,743.09a7.35,7.35,0,0,1-5.62-2.17,8.39,8.39,0,0,1-2.06-6,9.32,9.32,0,0,1,1.91-6.16,6.35,6.35,0,0,1,5.14-2.29,6,6,0,0,1,4.77,2,7.61,7.61,0,0,1,1.76,5.23v1.54h-11.06a6.31,6.31,0,0,0,1.43,4.29,4.91,4.91,0,0,0,3.81,1.47,12.82,12.82,0,0,0,5.13-1.09v2.17a12.82,12.82,0,0,1-2.44.8A13.72,13.72,0,0,1,2053.72,743.09Zm-.66-14.6a4,4,0,0,0-3.09,1.26,5.8,5.8,0,0,0-1.35,3.48H2057a5.37,5.37,0,0,0-1-3.52A3.63,3.63,0,0,0,2053.06,728.49Z"/><path d="M1609.66,779.09a6.87,6.87,0,0,1-2.86-.58,5.27,5.27,0,0,1-2.18-1.78h-.17a23.07,23.07,0,0,1,.17,2.67V786h-2.43V762.75h2l.34,2.19h.11a5.67,5.67,0,0,1,2.19-1.9,6.63,6.63,0,0,1,2.85-.59,6,6,0,0,1,4.93,2.18,11.6,11.6,0,0,1,0,12.27A5.94,5.94,0,0,1,1609.66,779.09Zm-.35-14.57a4.3,4.3,0,0,0-3.56,1.36,7,7,0,0,0-1.13,4.34v.54c0,2.25.38,3.87,1.13,4.84a4.3,4.3,0,0,0,3.62,1.46,3.75,3.75,0,0,0,3.26-1.69,8,8,0,0,0,1.18-4.64,7.75,7.75,0,0,0-1.18-4.61A3.88,3.88,0,0,0,1609.31,764.52Z"/><path d="M1634.43,770.76a8.89,8.89,0,0,1-2,6.13,7,7,0,0,1-5.47,2.2,7.17,7.17,0,0,1-3.82-1,6.7,6.7,0,0,1-2.58-2.9,10,10,0,0,1-.91-4.42,8.85,8.85,0,0,1,2-6.12,6.92,6.92,0,0,1,5.44-2.19,6.81,6.81,0,0,1,5.36,2.24A8.86,8.86,0,0,1,1634.43,770.76Zm-12.23,0a7.64,7.64,0,0,0,1.23,4.69,4.89,4.89,0,0,0,7.25,0,7.6,7.6,0,0,0,1.23-4.69,7.49,7.49,0,0,0-1.23-4.65,4.37,4.37,0,0,0-3.66-1.59,4.28,4.28,0,0,0-3.6,1.56A7.58,7.58,0,0,0,1622.2,770.76Z"/><path d="M1638.49,758.39a1.63,1.63,0,0,1,.41-1.22,1.44,1.44,0,0,1,1-.39,1.46,1.46,0,0,1,1,.4,1.59,1.59,0,0,1,.42,1.21,1.64,1.64,0,0,1-.42,1.23,1.42,1.42,0,0,1-1,.4,1.4,1.4,0,0,1-1-.4A1.67,1.67,0,0,1,1638.49,758.39Zm2.64,20.41h-2.43v-16h2.43Z"/><path d="M1657.27,778.8V768.41a4.24,4.24,0,0,0-.89-2.93,3.67,3.67,0,0,0-2.8-1,4.6,4.6,0,0,0-3.69,1.36q-1.17,1.36-1.17,4.5v8.42h-2.44v-16h2l.4,2.19h.11a5,5,0,0,1,2.1-1.84,6.87,6.87,0,0,1,3-.65,6.12,6.12,0,0,1,4.37,1.4,6,6,0,0,1,1.46,4.48V778.8Z"/><path d="M1669.88,777.09a8.44,8.44,0,0,0,1.25-.1,6.91,6.91,0,0,0,.95-.2v1.86a4.5,4.5,0,0,1-1.17.32,9,9,0,0,1-1.38.12c-3.1,0-4.66-1.63-4.66-4.9v-9.56h-2.3v-1.17l2.3-1,1-3.43h1.4v3.73H1672v1.88h-4.66v9.45a3.25,3.25,0,0,0,.69,2.23A2.39,2.39,0,0,0,1669.88,777.09Z"/><path d="M1682.88,758.39a1.59,1.59,0,0,1,.41-1.22,1.41,1.41,0,0,1,1-.39,1.45,1.45,0,0,1,1,.4,1.59,1.59,0,0,1,.43,1.21,1.64,1.64,0,0,1-.43,1.23,1.4,1.4,0,0,1-1,.4,1.38,1.38,0,0,1-1-.4A1.63,1.63,0,0,1,1682.88,758.39Zm2.63,20.41h-2.43v-16h2.43Z"/><path d="M1701,774.42a4,4,0,0,1-1.67,3.46,7.83,7.83,0,0,1-4.68,1.21,10.12,10.12,0,0,1-5-1v-2.25a12.42,12.42,0,0,0,2.48.92,10.61,10.61,0,0,0,2.56.34,5.87,5.87,0,0,0,2.93-.61,2.1,2.1,0,0,0,.21-3.46,12.77,12.77,0,0,0-3.17-1.57,17.62,17.62,0,0,1-3.19-1.46,4.5,4.5,0,0,1-1.41-1.41,3.78,3.78,0,0,1-.46-1.89,3.61,3.61,0,0,1,1.6-3.1,7.4,7.4,0,0,1,4.38-1.14,12.7,12.7,0,0,1,5.07,1.06l-.87,2a11.68,11.68,0,0,0-4.38-1,5,5,0,0,0-2.6.54,1.67,1.67,0,0,0-.88,1.49,1.82,1.82,0,0,0,.33,1.1,3.23,3.23,0,0,0,1.06.87,23.12,23.12,0,0,0,2.81,1.18,10.61,10.61,0,0,1,3.86,2.1A3.69,3.69,0,0,1,1701,774.42Z"/><path d="M1726.63,770.76a8.84,8.84,0,0,1-2,6.13,7,7,0,0,1-5.46,2.2,7.15,7.15,0,0,1-3.82-1,6.58,6.58,0,0,1-2.58-2.9,10,10,0,0,1-.91-4.42,8.84,8.84,0,0,1,2-6.12,7,7,0,0,1,5.45-2.19,6.82,6.82,0,0,1,5.36,2.24A8.86,8.86,0,0,1,1726.63,770.76Zm-12.23,0a7.64,7.64,0,0,0,1.23,4.69,4.87,4.87,0,0,0,7.24,0,7.54,7.54,0,0,0,1.24-4.69,7.43,7.43,0,0,0-1.24-4.65,5,5,0,0,0-7.26,0A7.58,7.58,0,0,0,1714.4,770.76Z"/><path d="M1733.18,762.75v10.41a4.21,4.21,0,0,0,.89,2.93,3.67,3.67,0,0,0,2.8,1,4.54,4.54,0,0,0,3.68-1.38,6.94,6.94,0,0,0,1.17-4.5v-8.43h2.43v16h-2l-.35-2.15h-.13a4.87,4.87,0,0,1-2.07,1.81,7,7,0,0,1-3,.63,6.15,6.15,0,0,1-4.39-1.39,5.93,5.93,0,0,1-1.45-4.45v-10.5Z"/><path d="M1754.49,777.09a8.44,8.44,0,0,0,1.25-.1,7.25,7.25,0,0,0,1-.2v1.86a4.5,4.5,0,0,1-1.17.32,9,9,0,0,1-1.38.12q-4.67,0-4.66-4.9v-9.56h-2.3v-1.17l2.3-1,1-3.43h1.4v3.73h4.66v1.88h-4.66v9.45a3.25,3.25,0,0,0,.69,2.23A2.39,2.39,0,0,0,1754.49,777.09Z"/><path d="M1770.25,774.42a4,4,0,0,1-1.67,3.46,7.83,7.83,0,0,1-4.68,1.21,10.12,10.12,0,0,1-5-1v-2.25a12.2,12.2,0,0,0,2.48.92,10.53,10.53,0,0,0,2.55.34,5.84,5.84,0,0,0,2.93-.61,2.1,2.1,0,0,0,.22-3.46,12.77,12.77,0,0,0-3.17-1.57,17.62,17.62,0,0,1-3.19-1.46,4.5,4.5,0,0,1-1.41-1.41,3.78,3.78,0,0,1-.46-1.89,3.59,3.59,0,0,1,1.6-3.1,7.4,7.4,0,0,1,4.38-1.14,12.7,12.7,0,0,1,5.07,1.06l-.87,2a11.68,11.68,0,0,0-4.38-1,5.08,5.08,0,0,0-2.61.54,1.68,1.68,0,0,0-.87,1.49,1.82,1.82,0,0,0,.33,1.1,3.12,3.12,0,0,0,1.06.87,23.12,23.12,0,0,0,2.81,1.18,10.7,10.7,0,0,1,3.86,2.1A3.69,3.69,0,0,1,1770.25,774.42Z"/><path d="M1774,758.39a1.63,1.63,0,0,1,.41-1.22,1.51,1.51,0,0,1,2,0,1.59,1.59,0,0,1,.42,1.21,1.64,1.64,0,0,1-.42,1.23,1.5,1.5,0,0,1-2,0A1.67,1.67,0,0,1,1774,758.39Zm2.64,20.41h-2.43v-16h2.43Z"/><path d="M1792.72,776.65h-.13a5.7,5.7,0,0,1-5,2.44,6,6,0,0,1-4.9-2.15,9.53,9.53,0,0,1-1.75-6.12,9.64,9.64,0,0,1,1.76-6.17,5.9,5.9,0,0,1,4.89-2.2,5.82,5.82,0,0,1,5,2.38h.19l-.1-1.16-.06-1.13V756H1795V778.8h-2Zm-4.86.41a4.43,4.43,0,0,0,3.61-1.36,6.82,6.82,0,0,0,1.12-4.37v-.51c0-2.28-.38-3.9-1.13-4.87a4.3,4.3,0,0,0-3.63-1.46,3.71,3.71,0,0,0-3.27,1.66,8.24,8.24,0,0,0-1.14,4.7,7.94,7.94,0,0,0,1.13,4.64A3.84,3.84,0,0,0,1787.86,777.06Z"/><path d="M1807,779.09a7.38,7.38,0,0,1-5.62-2.17,8.39,8.39,0,0,1-2-6,9.27,9.27,0,0,1,1.91-6.16,6.32,6.32,0,0,1,5.13-2.29,6,6,0,0,1,4.78,2,7.61,7.61,0,0,1,1.76,5.23v1.54h-11.06a6.31,6.31,0,0,0,1.42,4.29,5,5,0,0,0,3.82,1.47,12.82,12.82,0,0,0,5.13-1.09v2.17a13.06,13.06,0,0,1-2.44.8A13.83,13.83,0,0,1,1807,779.09Zm-.66-14.6a4,4,0,0,0-3.08,1.26,5.8,5.8,0,0,0-1.36,3.48h8.4a5.32,5.32,0,0,0-1-3.52A3.62,3.62,0,0,0,1806.3,764.49Z"/><path d="M1838.66,770.76a8.84,8.84,0,0,1-2,6.13,7,7,0,0,1-5.46,2.2,7.15,7.15,0,0,1-3.82-1,6.58,6.58,0,0,1-2.58-2.9,10,10,0,0,1-.91-4.42,8.84,8.84,0,0,1,2-6.12,7,7,0,0,1,5.45-2.19,6.82,6.82,0,0,1,5.36,2.24A8.86,8.86,0,0,1,1838.66,770.76Zm-12.23,0a7.64,7.64,0,0,0,1.23,4.69,4.87,4.87,0,0,0,7.24,0,7.54,7.54,0,0,0,1.24-4.69,7.43,7.43,0,0,0-1.24-4.65,4.33,4.33,0,0,0-3.65-1.59,4.28,4.28,0,0,0-3.6,1.56A7.58,7.58,0,0,0,1826.43,770.76Z"/><path d="M1850.16,764.63h-4.09V778.8h-2.43V764.63h-2.87v-1.09l2.87-.88v-.9c0-3.94,1.73-5.91,5.17-5.91a10.69,10.69,0,0,1,3,.51l-.63,1.95a7.87,7.87,0,0,0-2.4-.46,2.35,2.35,0,0,0-2,.92,5.11,5.11,0,0,0-.66,2.94v1h4.09Z"/><path d="M1866.07,777.09a8.3,8.3,0,0,0,1.24-.1,7.46,7.46,0,0,0,1-.2v1.86a4.74,4.74,0,0,1-1.17.32,9,9,0,0,1-1.38.12q-4.67,0-4.66-4.9v-9.56h-2.3v-1.17l2.3-1,1-3.43h1.41v3.73h4.66v1.88h-4.66v9.45a3.25,3.25,0,0,0,.69,2.23A2.39,2.39,0,0,0,1866.07,777.09Z"/><path d="M1882.46,778.8V768.41a4.24,4.24,0,0,0-.89-2.93,3.67,3.67,0,0,0-2.8-1,4.61,4.61,0,0,0-3.7,1.37c-.78.92-1.16,2.43-1.16,4.52v8.39h-2.44V756h2.44v6.9a14.63,14.63,0,0,1-.12,2.06h.15a4.83,4.83,0,0,1,2-1.82,6.55,6.55,0,0,1,3-.67,6.2,6.2,0,0,1,4.42,1.4,5.89,5.89,0,0,1,1.47,4.45V778.8Z"/><path d="M1896.67,779.09a7.37,7.37,0,0,1-5.62-2.17,8.39,8.39,0,0,1-2.06-6,9.32,9.32,0,0,1,1.91-6.16,6.35,6.35,0,0,1,5.14-2.29,6,6,0,0,1,4.77,2,7.56,7.56,0,0,1,1.76,5.23v1.54h-11.06a6.36,6.36,0,0,0,1.43,4.29,4.94,4.94,0,0,0,3.82,1.47,12.78,12.78,0,0,0,5.12-1.09v2.17a13,13,0,0,1-2.43.8A13.9,13.9,0,0,1,1896.67,779.09Zm-.66-14.6a4,4,0,0,0-3.08,1.26,5.8,5.8,0,0,0-1.36,3.48h8.4a5.37,5.37,0,0,0-1-3.52A3.62,3.62,0,0,0,1896,764.49Z"/><path d="M1920.93,779.09a6.84,6.84,0,0,1-5.4-2.14,8.8,8.8,0,0,1-1.91-6.07,9.07,9.07,0,0,1,1.94-6.23,7,7,0,0,1,5.53-2.2,11.34,11.34,0,0,1,2.31.25,7.61,7.61,0,0,1,1.82.59l-.75,2.06a11.41,11.41,0,0,0-1.76-.53,7.85,7.85,0,0,0-1.68-.21q-4.89,0-4.89,6.24a7.48,7.48,0,0,0,1.19,4.54,4.18,4.18,0,0,0,3.54,1.58,10.69,10.69,0,0,0,4.11-.87v2.16A8.82,8.82,0,0,1,1920.93,779.09Z"/><path d="M1928.59,758.39a1.63,1.63,0,0,1,.41-1.22,1.41,1.41,0,0,1,1-.39,1.45,1.45,0,0,1,1,.4,1.55,1.55,0,0,1,.43,1.21,1.6,1.6,0,0,1-.43,1.23,1.4,1.4,0,0,1-1,.4,1.38,1.38,0,0,1-1-.4A1.67,1.67,0,0,1,1928.59,758.39Zm2.64,20.41h-2.44v-16h2.44Z"/><path d="M1943.71,762.45a9.19,9.19,0,0,1,1.91.18l-.33,2.25a8.78,8.78,0,0,0-1.76-.22,4.26,4.26,0,0,0-3.33,1.59,5.72,5.72,0,0,0-1.39,3.94v8.61h-2.43v-16h2l.28,3h.11a7.11,7.11,0,0,1,2.16-2.42A4.89,4.89,0,0,1,1943.71,762.45Z"/><path d="M1955,779.09a6.83,6.83,0,0,1-5.39-2.14,8.81,8.81,0,0,1-1.92-6.07,9.12,9.12,0,0,1,1.94-6.23,7,7,0,0,1,5.53-2.2,11.36,11.36,0,0,1,2.32.25,7.61,7.61,0,0,1,1.82.59l-.75,2.06a11.75,11.75,0,0,0-1.76-.53,7.92,7.92,0,0,0-1.68-.21q-4.9,0-4.9,6.24a7.41,7.41,0,0,0,1.2,4.54A4.15,4.15,0,0,0,1955,777a10.78,10.78,0,0,0,4.12-.87v2.16A8.86,8.86,0,0,1,1955,779.09Z"/><path d="M1965.34,778.8h-2.43V756h2.43Z"/><path d="M1977.28,779.09a7.37,7.37,0,0,1-5.62-2.17,8.39,8.39,0,0,1-2.06-6,9.27,9.27,0,0,1,1.92-6.16,6.32,6.32,0,0,1,5.13-2.29,6.06,6.06,0,0,1,4.78,2,7.6,7.6,0,0,1,1.75,5.23v1.54h-11.06a6.36,6.36,0,0,0,1.43,4.29,5,5,0,0,0,3.82,1.47,12.74,12.74,0,0,0,5.12-1.09v2.17a12.74,12.74,0,0,1-2.43.8A13.9,13.9,0,0,1,1977.28,779.09Zm-.66-14.6a4,4,0,0,0-3.08,1.26,5.8,5.8,0,0,0-1.36,3.48h8.4a5.37,5.37,0,0,0-1-3.52A3.62,3.62,0,0,0,1976.62,764.49Z"/><path d="M2000.82,779.09a5.84,5.84,0,0,1-4.85-2.18,11.59,11.59,0,0,1,0-12.25,5.9,5.9,0,0,1,4.89-2.21,5.84,5.84,0,0,1,5.07,2.49h.13l.35-2.19h1.92V786h-2.43v-6.87a16,16,0,0,1,.16-2.49h-.19A5.74,5.74,0,0,1,2000.82,779.09Zm.37-2a4.4,4.4,0,0,0,3.54-1.31,7.07,7.07,0,0,0,1.19-4.39v-.54q0-3.37-1.15-4.85a4.26,4.26,0,0,0-3.61-1.48,3.73,3.73,0,0,0-3.28,1.66,8.33,8.33,0,0,0-1.13,4.7,8,8,0,0,0,1.12,4.62A3.8,3.8,0,0,0,2001.19,777.06Z"/><path d="M2015.79,762.75v10.41a4.21,4.21,0,0,0,.89,2.93,3.67,3.67,0,0,0,2.8,1,4.58,4.58,0,0,0,3.69-1.38,7,7,0,0,0,1.16-4.5v-8.43h2.43v16h-2l-.36-2.15h-.13a4.87,4.87,0,0,1-2.07,1.81,7,7,0,0,1-3,.63,6.11,6.11,0,0,1-4.38-1.39c-1-.93-1.46-2.41-1.46-4.45v-10.5Z"/><path d="M2041.79,778.8l-.48-2.29h-.12a6.81,6.81,0,0,1-2.39,2,7.45,7.45,0,0,1-3,.53,5.37,5.37,0,0,1-3.74-1.23,4.48,4.48,0,0,1-1.35-3.5q0-4.86,7.78-5.1l2.72-.08v-1a4.08,4.08,0,0,0-.81-2.79,3.34,3.34,0,0,0-2.6-.9,10.59,10.59,0,0,0-4.54,1.23l-.75-1.86a11.25,11.25,0,0,1,2.6-1,11,11,0,0,1,2.83-.37,6.11,6.11,0,0,1,4.26,1.28,5.32,5.32,0,0,1,1.38,4.08v11Zm-5.49-1.71a5,5,0,0,0,3.57-1.25,4.62,4.62,0,0,0,1.29-3.49V770.9l-2.43.11a8.88,8.88,0,0,0-4.18.9,2.7,2.7,0,0,0-1.28,2.48,2.51,2.51,0,0,0,.79,2A3.33,3.33,0,0,0,2036.3,777.09Z"/><path d="M2059.53,776.65h-.13a5.7,5.7,0,0,1-5,2.44,6,6,0,0,1-4.9-2.15,9.47,9.47,0,0,1-1.75-6.12,9.64,9.64,0,0,1,1.76-6.17,5.9,5.9,0,0,1,4.89-2.2,5.82,5.82,0,0,1,5,2.38h.19l-.1-1.16-.06-1.13V756h2.43V778.8h-2Zm-4.86.41a4.44,4.44,0,0,0,3.61-1.36,6.82,6.82,0,0,0,1.12-4.37v-.51q0-3.42-1.14-4.87a4.27,4.27,0,0,0-3.62-1.46,3.73,3.73,0,0,0-3.28,1.66,8.33,8.33,0,0,0-1.13,4.7,7.86,7.86,0,0,0,1.13,4.64A3.82,3.82,0,0,0,2054.67,777.06Z"/><path d="M2065.64,771.87v-2.23h7.19v2.23Z"/><path d="M1813.78,798.45a9.35,9.35,0,0,1,1.92.18l-.34,2.25a8.69,8.69,0,0,0-1.75-.22,4.29,4.29,0,0,0-3.34,1.59,5.76,5.76,0,0,0-1.38,3.94v8.61h-2.43v-16h2l.28,3h.12a7.09,7.09,0,0,1,2.15-2.42A4.92,4.92,0,0,1,1813.78,798.45Z"/><path d="M1828.58,814.8l-.49-2.29H1828a6.83,6.83,0,0,1-2.4,2,7.43,7.43,0,0,1-3,.53,5.35,5.35,0,0,1-3.74-1.23,4.46,4.46,0,0,1-1.36-3.5q0-4.86,7.78-5.1l2.72-.08v-1a4.08,4.08,0,0,0-.81-2.79,3.34,3.34,0,0,0-2.6-.9,10.59,10.59,0,0,0-4.54,1.23l-.75-1.86a11.25,11.25,0,0,1,2.6-1,11.07,11.07,0,0,1,2.84-.37,6.1,6.1,0,0,1,4.25,1.28,5.29,5.29,0,0,1,1.39,4.08v11Zm-5.5-1.71a4.93,4.93,0,0,0,3.57-1.25,4.62,4.62,0,0,0,1.3-3.49V806.9l-2.44.11a8.91,8.91,0,0,0-4.18.9,2.72,2.72,0,0,0-1.28,2.48,2.52,2.52,0,0,0,.8,2A3.31,3.31,0,0,0,1823.08,813.09Z"/><path d="M1846.37,814.8V804.41a4.19,4.19,0,0,0-.89-2.93,3.65,3.65,0,0,0-2.8-1,4.6,4.6,0,0,0-3.69,1.36q-1.17,1.36-1.17,4.5v8.42h-2.43v-16h2l.39,2.19h.12a5,5,0,0,1,2.09-1.84,6.88,6.88,0,0,1,3-.65,6.11,6.11,0,0,1,4.36,1.4,6,6,0,0,1,1.47,4.48V814.8Z"/><path d="M1859,813.09a8.3,8.3,0,0,0,1.24-.1,6.91,6.91,0,0,0,1-.2v1.86a4.52,4.52,0,0,1-1.16.32,9,9,0,0,1-1.38.12q-4.67,0-4.66-4.9v-9.56h-2.3v-1.17l2.3-1,1-3.43h1.41v3.73h4.66v1.88h-4.66v9.45a3.25,3.25,0,0,0,.69,2.23A2.39,2.39,0,0,0,1859,813.09Z"/><path d="M1864,813.25a2.18,2.18,0,0,1,.45-1.49,1.59,1.59,0,0,1,1.28-.51,1.71,1.71,0,0,1,1.32.51,2.09,2.09,0,0,1,.48,1.49,2.06,2.06,0,0,1-.48,1.46,1.76,1.76,0,0,1-1.32.51,1.73,1.73,0,0,1-1.24-.46A2,2,0,0,1,1864,813.25Z"/></g><g id="Watermark"><g id="Cygig_Black" data-name="Cygig Black" class="cls-14"><g class="cls-15"><g class="cls-15"><g class="cls-16"><g class="cls-17"><g class="cls-18"><path d="M2059.76,26c-8,0-13.5,7.25-13.5,14.79,0,8,5.28,15.24,13.73,15.24,8.9,0,13.73-7.24,13.73-15.62,0-8.07-5.5-14.41-14-14.41"/></g></g><g class="cls-17"><g class="cls-19"><path d="M2114.82,26c-8,0-13.5,7.25-13.5,14.79,0,8,5.28,15.24,13.73,15.24,8.9,0,13.73-7.24,13.73-15.62,0-8.07-5.51-14.41-14-14.41"/></g></g><g class="cls-17"><g class="cls-20"><path d="M1959.77,87.2h190V0h-190Zm42.43-32.83a19.19,19.19,0,0,1-12.67,4.83c-10.34,0-17.88-8.07-17.88-18.26a17.75,17.75,0,0,1,17.95-18.11,18.3,18.3,0,0,1,12.14,4.3l-2.35,2.34a15.55,15.55,0,0,0-9.94-3.47c-8.22,0-14.41,7-14.41,14.94S1981.15,56,1989.38,56a16.4,16.4,0,0,0,10.55-4l2.27,2.27Zm14.56,23.92h-3.47l8.15-19.24-16.75-35.46h3.55l14.86,31.54,13.35-31.54h3.47Zm60.13-21.5c0,5.35-.15,10.18-3.47,14.79a16.81,16.81,0,0,1-13.88,6.71c-9.13,0-16.68-5.36-17.21-14.94h3.4c.38,7.24,6.49,11.77,13.51,11.77,4.37,0,8.59-1.51,11.16-5.2,2.72-4,3.1-8.53,3.1-13.21v-4.3h-.16a17.24,17.24,0,0,1-13.58,6.79c-10.11,0-16.9-8.52-16.9-18.26,0-10,7.17-18.11,17.36-18.11a15.5,15.5,0,0,1,13.12,6.79h.16l3.39-3.39Zm12.22,1.66h-3.4V23.59h3.4Zm-1.66-43.39a3.06,3.06,0,0,1-3.1-3.09,3.1,3.1,0,0,1,6.19,0,3.05,3.05,0,0,1-3.09,3.09M2132,56.79c0,5.35-.15,10.18-3.47,14.79a16.83,16.83,0,0,1-13.89,6.71c-9.13,0-16.67-5.36-17.2-14.94h3.4c.38,7.24,6.48,11.77,13.5,11.77,4.38,0,8.6-1.51,11.17-5.2,2.71-4,3.09-8.53,3.09-13.21v-4.3h-.15a17.26,17.26,0,0,1-13.58,6.79c-10.11,0-16.9-8.52-16.9-18.26,0-10,7.17-18.11,17.35-18.11a15.52,15.52,0,0,1,13.13,6.79h.15l3.4-3.39Z"/></g></g></g></g></g></g></g></svg>